<svg id="visual" viewBox="0 0 900 600" width="900" height="600" xmlns="http://www.w3.org/2000/svg" xmlns:xlink="http://www.w3.org/1999/xlink" version="1.1"><path d="M0 227L16.7 210.2C33.3 193.3 66.7 159.7 100 161.2C133.3 162.7 166.7 199.3 200 200.5C233.3 201.7 266.7 167.3 300 148C333.3 128.7 366.7 124.3 400 125.3C433.3 126.3 466.7 132.7 500 150.5C533.3 168.3 566.7 197.7 600 213C633.3 228.3 666.7 229.7 700 224.5C733.3 219.3 766.7 207.7 800 212.3C833.3 217 866.7 238 883.3 248.5L900 259L900 601L883.3 601C866.7 601 833.3 601 800 601C766.7 601 733.3 601 700 601C666.7 601 633.3 601 600 601C566.7 601 533.3 601 500 601C466.7 601 433.3 601 400 601C366.7 601 333.3 601 300 601C266.7 601 233.3 601 200 601C166.7 601 133.3 601 100 601C66.7 601 33.3 601 16.7 601L0 601Z" fill="#fa7268"></path><path d="M0 242L16.7 250.2C33.3 258.3 66.7 274.7 100 282.5C133.3 290.3 166.7 289.7 200 307.5C233.3 325.3 266.7 361.7 300 355C333.3 348.3 366.7 298.7 400 271.2C433.3 243.7 466.7 238.3 500 236.8C533.3 235.3 566.7 237.7 600 254C633.3 270.3 666.7 300.7 700 329.7C733.3 358.7 766.7 386.3 800 368.2C833.3 350 866.7 286 883.3 254L900 222L900 601L883.3 601C866.7 601 833.3 601 800 601C766.7 601 733.3 601 700 601C666.7 601 633.3 601 600 601C566.7 601 533.3 601 500 601C466.7 601 433.3 601 400 601C366.7 601 333.3 601 300 601C266.7 601 233.3 601 200 601C166.7 601 133.3 601 100 601C66.7 601 33.3 601 16.7 601L0 601Z" fill="#ef5f67"></path><path d="M0 375L16.7 371.7C33.3 368.3 66.7 361.7 100 347.7C133.3 333.7 166.7 312.3 200 323.3C233.3 334.3 266.7 377.7 300 405C333.3 432.3 366.7 443.7 400 427.2C433.3 410.7 466.7 366.3 500 365.8C533.3 365.3 566.7 408.7 600 413C633.3 417.3 666.7 382.7 700 358.8C733.3 335 766.7 322 800 323.7C833.3 325.3 866.7 341.7 883.3 349.8L900 358L900 601L883.3 601C866.7 601 833.3 601 800 601C766.7 601 733.3 601 700 601C666.7 601 633.3 601 600 601C566.7 601 533.3 601 500 601C466.7 601 433.3 601 400 601C366.7 601 333.3 601 300 601C266.7 601 233.3 601 200 601C166.7 601 133.3 601 100 601C66.7 601 33.3 601 16.7 601L0 601Z" fill="#e34c67"></path><path d="M0 463L16.7 462.2C33.3 461.3 66.7 459.7 100 457C133.3 454.3 166.7 450.7 200 457.3C233.3 464 266.7 481 300 466.8C333.3 452.7 366.7 407.3 400 398.7C433.3 390 466.7 418 500 424.2C533.3 430.3 566.7 414.7 600 407.7C633.3 400.7 666.7 402.3 700 408C733.3 413.7 766.7 423.3 800 440.2C833.3 457 866.7 481 883.3 493L900 505L900 601L883.3 601C866.7 601 833.3 601 800 601C766.7 601 733.3 601 700 601C666.7 601 633.3 601 600 601C566.7 601 533.3 601 500 601C466.7 601 433.3 601 400 601C366.7 601 333.3 601 300 601C266.7 601 233.3 601 200 601C166.7 601 133.3 601 100 601C66.7 601 33.3 601 16.7 601L0 601Z" fill="#d53867"></path><path d="M0 520L16.7 518.5C33.3 517 66.7 514 100 508.7C133.3 503.3 166.7 495.7 200 491C233.3 486.3 266.7 484.7 300 493.2C333.3 501.7 366.7 520.3 400 514.8C433.3 509.3 466.7 479.7 500 475.2C533.3 470.7 566.7 491.3 600 502.3C633.3 513.3 666.7 514.7 700 522.3C733.3 530 766.7 544 800 549.8C833.3 555.7 866.7 553.3 883.3 552.2L900 551L900 601L883.3 601C866.7 601 833.3 601 800 601C766.7 601 733.3 601 700 601C666.7 601 633.3 601 600 601C566.7 601 533.3 601 500 601C466.7 601 433.3 601 400 601C366.7 601 333.3 601 300 601C266.7 601 233.3 601 200 601C166.7 601 133.3 601 100 601C66.7 601 33.3 601 16.7 601L0 601Z" fill="#c62368"></path></svg>