<svg id="visual" viewBox="0 0 900 600" width="900" height="600" xmlns="http://www.w3.org/2000/svg" xmlns:xlink="http://www.w3.org/1999/xlink" version="1.1"><path d="M0 37L11.5 42C23 47 46 57 69 57.3C92 57.7 115 48.3 138.2 47.5C161.3 46.7 184.7 54.3 207.8 54.3C231 54.3 254 46.7 277 43C300 39.3 323 39.7 346 45C369 50.3 392 60.7 415.2 61.7C438.3 62.7 461.7 54.3 484.8 47.2C508 40 531 34 554 39C577 44 600 60 623 67.2C646 74.3 669 72.7 692.2 68.8C715.3 65 738.7 59 761.8 53.7C785 48.3 808 43.7 831 40.8C854 38 877 37 888.5 36.5L900 36L900 601L888.5 601C877 601 854 601 831 601C808 601 785 601 761.8 601C738.7 601 715.3 601 692.2 601C669 601 646 601 623 601C600 601 577 601 554 601C531 601 508 601 484.8 601C461.7 601 438.3 601 415.2 601C392 601 369 601 346 601C323 601 300 601 277 601C254 601 231 601 207.8 601C184.7 601 161.3 601 138.2 601C115 601 92 601 69 601C46 601 23 601 11.5 601L0 601Z" fill="#ff006a"></path><path d="M0 118L11.5 117.3C23 116.7 46 115.3 69 115.2C92 115 115 116 138.2 110.7C161.3 105.3 184.7 93.7 207.8 92.8C231 92 254 102 277 105.5C300 109 323 106 346 105.5C369 105 392 107 415.2 112C438.3 117 461.7 125 484.8 121.7C508 118.3 531 103.7 554 102.2C577 100.7 600 112.3 623 116.5C646 120.7 669 117.3 692.2 115.8C715.3 114.3 738.7 114.7 761.8 116.2C785 117.7 808 120.3 831 117C854 113.7 877 104.3 888.5 99.7L900 95L900 601L888.5 601C877 601 854 601 831 601C808 601 785 601 761.8 601C738.7 601 715.3 601 692.2 601C669 601 646 601 623 601C600 601 577 601 554 601C531 601 508 601 484.8 601C461.7 601 438.3 601 415.2 601C392 601 369 601 346 601C323 601 300 601 277 601C254 601 231 601 207.8 601C184.7 601 161.3 601 138.2 601C115 601 92 601 69 601C46 601 23 601 11.5 601L0 601Z" fill="#ff486e"></path><path d="M0 177L11.5 177.7C23 178.3 46 179.7 69 179.7C92 179.7 115 178.3 138.2 175.3C161.3 172.3 184.7 167.7 207.8 167C231 166.3 254 169.7 277 173C300 176.3 323 179.7 346 177.3C369 175 392 167 415.2 166.5C438.3 166 461.7 173 484.8 177C508 181 531 182 554 181.5C577 181 600 179 623 176.5C646 174 669 171 692.2 164.3C715.3 157.7 738.7 147.3 761.8 146.7C785 146 808 155 831 160.7C854 166.3 877 168.7 888.5 169.8L900 171L900 601L888.5 601C877 601 854 601 831 601C808 601 785 601 761.8 601C738.7 601 715.3 601 692.2 601C669 601 646 601 623 601C600 601 577 601 554 601C531 601 508 601 484.8 601C461.7 601 438.3 601 415.2 601C392 601 369 601 346 601C323 601 300 601 277 601C254 601 231 601 207.8 601C184.7 601 161.3 601 138.2 601C115 601 92 601 69 601C46 601 23 601 11.5 601L0 601Z" fill="#ff6976"></path><path d="M0 191L11.5 193.7C23 196.3 46 201.7 69 206.3C92 211 115 215 138.2 217.8C161.3 220.7 184.7 222.3 207.8 221.5C231 220.7 254 217.3 277 216.7C300 216 323 218 346 222C369 226 392 232 415.2 230.3C438.3 228.7 461.7 219.3 484.8 213.5C508 207.7 531 205.3 554 203.7C577 202 600 201 623 203.7C646 206.3 669 212.7 692.2 213.8C715.3 215 738.7 211 761.8 213.3C785 215.7 808 224.3 831 225.2C854 226 877 219 888.5 215.5L900 212L900 601L888.5 601C877 601 854 601 831 601C808 601 785 601 761.8 601C738.7 601 715.3 601 692.2 601C669 601 646 601 623 601C600 601 577 601 554 601C531 601 508 601 484.8 601C461.7 601 438.3 601 415.2 601C392 601 369 601 346 601C323 601 300 601 277 601C254 601 231 601 207.8 601C184.7 601 161.3 601 138.2 601C115 601 92 601 69 601C46 601 23 601 11.5 601L0 601Z" fill="#ff8381"></path><path d="M0 262L11.5 263.2C23 264.3 46 266.7 69 265.8C92 265 115 261 138.2 265.7C161.3 270.3 184.7 283.7 207.8 287.7C231 291.7 254 286.3 277 281.7C300 277 323 273 346 272C369 271 392 273 415.2 272.3C438.3 271.7 461.7 268.3 484.8 264.8C508 261.3 531 257.7 554 260.7C577 263.7 600 273.3 623 278.5C646 283.7 669 284.3 692.2 278.8C715.3 273.3 738.7 261.7 761.8 256.5C785 251.3 808 252.7 831 257.3C854 262 877 270 888.5 274L900 278L900 601L888.5 601C877 601 854 601 831 601C808 601 785 601 761.8 601C738.7 601 715.3 601 692.2 601C669 601 646 601 623 601C600 601 577 601 554 601C531 601 508 601 484.8 601C461.7 601 438.3 601 415.2 601C392 601 369 601 346 601C323 601 300 601 277 601C254 601 231 601 207.8 601C184.7 601 161.3 601 138.2 601C115 601 92 601 69 601C46 601 23 601 11.5 601L0 601Z" fill="#ff928a"></path><path d="M0 314L11.5 314.5C23 315 46 316 69 320.5C92 325 115 333 138.2 335.5C161.3 338 184.7 335 207.8 331.2C231 327.3 254 322.7 277 323C300 323.3 323 328.7 346 328.7C369 328.7 392 323.3 415.2 321.3C438.3 319.3 461.7 320.7 484.8 323C508 325.3 531 328.7 554 329.2C577 329.7 600 327.3 623 325.3C646 323.3 669 321.7 692.2 320.2C715.3 318.7 738.7 317.3 761.8 313.8C785 310.3 808 304.7 831 303.8C854 303 877 307 888.5 309L900 311L900 601L888.5 601C877 601 854 601 831 601C808 601 785 601 761.8 601C738.7 601 715.3 601 692.2 601C669 601 646 601 623 601C600 601 577 601 554 601C531 601 508 601 484.8 601C461.7 601 438.3 601 415.2 601C392 601 369 601 346 601C323 601 300 601 277 601C254 601 231 601 207.8 601C184.7 601 161.3 601 138.2 601C115 601 92 601 69 601C46 601 23 601 11.5 601L0 601Z" fill="#ff928a"></path><path d="M0 398L11.5 395.5C23 393 46 388 69 389.2C92 390.3 115 397.7 138.2 399.7C161.3 401.7 184.7 398.3 207.8 393.8C231 389.3 254 383.7 277 384.7C300 385.7 323 393.3 346 397C369 400.7 392 400.3 415.2 401.2C438.3 402 461.7 404 484.8 400.5C508 397 531 388 554 384.7C577 381.3 600 383.7 623 386.3C646 389 669 392 692.2 386.8C715.3 381.7 738.7 368.3 761.8 364.7C785 361 808 367 831 368.8C854 370.7 877 368.3 888.5 367.2L900 366L900 601L888.5 601C877 601 854 601 831 601C808 601 785 601 761.8 601C738.7 601 715.3 601 692.2 601C669 601 646 601 623 601C600 601 577 601 554 601C531 601 508 601 484.8 601C461.7 601 438.3 601 415.2 601C392 601 369 601 346 601C323 601 300 601 277 601C254 601 231 601 207.8 601C184.7 601 161.3 601 138.2 601C115 601 92 601 69 601C46 601 23 601 11.5 601L0 601Z" fill="#ff8381"></path><path d="M0 437L11.5 434.8C23 432.7 46 428.3 69 423.7C92 419 115 414 138.2 415.2C161.3 416.3 184.7 423.7 207.8 432.3C231 441 254 451 277 448.7C300 446.3 323 431.7 346 424.8C369 418 392 419 415.2 419.7C438.3 420.3 461.7 420.7 484.8 422.5C508 424.3 531 427.7 554 429.3C577 431 600 431 623 427.5C646 424 669 417 692.2 419.2C715.3 421.3 738.7 432.7 761.8 436.8C785 441 808 438 831 436.2C854 434.3 877 433.7 888.5 433.3L900 433L900 601L888.5 601C877 601 854 601 831 601C808 601 785 601 761.8 601C738.7 601 715.3 601 692.2 601C669 601 646 601 623 601C600 601 577 601 554 601C531 601 508 601 484.8 601C461.7 601 438.3 601 415.2 601C392 601 369 601 346 601C323 601 300 601 277 601C254 601 231 601 207.8 601C184.7 601 161.3 601 138.2 601C115 601 92 601 69 601C46 601 23 601 11.5 601L0 601Z" fill="#ff6976"></path><path d="M0 483L11.5 483.8C23 484.7 46 486.3 69 484.3C92 482.3 115 476.7 138.2 481.3C161.3 486 184.7 501 207.8 504.8C231 508.7 254 501.3 277 497.3C300 493.3 323 492.7 346 488C369 483.3 392 474.7 415.2 478.7C438.3 482.7 461.7 499.3 484.8 507C508 514.7 531 513.3 554 507.5C577 501.7 600 491.3 623 491.7C646 492 669 503 692.2 501.7C715.3 500.3 738.7 486.7 761.8 478.5C785 470.3 808 467.7 831 469.3C854 471 877 477 888.5 480L900 483L900 601L888.5 601C877 601 854 601 831 601C808 601 785 601 761.8 601C738.7 601 715.3 601 692.2 601C669 601 646 601 623 601C600 601 577 601 554 601C531 601 508 601 484.8 601C461.7 601 438.3 601 415.2 601C392 601 369 601 346 601C323 601 300 601 277 601C254 601 231 601 207.8 601C184.7 601 161.3 601 138.2 601C115 601 92 601 69 601C46 601 23 601 11.5 601L0 601Z" fill="#ff486e"></path><path d="M0 553L11.5 548C23 543 46 533 69 528.5C92 524 115 525 138.2 524.7C161.3 524.3 184.7 522.7 207.8 525.3C231 528 254 535 277 542.7C300 550.3 323 558.7 346 559C369 559.3 392 551.7 415.2 545.3C438.3 539 461.7 534 484.8 534.8C508 535.7 531 542.3 554 544.2C577 546 600 543 623 545.8C646 548.7 669 557.3 692.2 560.2C715.3 563 738.7 560 761.8 558C785 556 808 555 831 549.8C854 544.7 877 535.3 888.5 530.7L900 526L900 601L888.5 601C877 601 854 601 831 601C808 601 785 601 761.8 601C738.7 601 715.3 601 692.2 601C669 601 646 601 623 601C600 601 577 601 554 601C531 601 508 601 484.8 601C461.7 601 438.3 601 415.2 601C392 601 369 601 346 601C323 601 300 601 277 601C254 601 231 601 207.8 601C184.7 601 161.3 601 138.2 601C115 601 92 601 69 601C46 601 23 601 11.5 601L0 601Z" fill="#ff006a"></path></svg>